 <svg version="1.0" xmlns="http://www.w3.org/2000/svg" width="460pt" height="139pt" viewBox="0 0 480 139" preserveAspectRatio="xMidYMid meet">
<metadata>
Created by potrace 1.12, written by Peter Selinger 2001-2015
</metadata>
<g transform="translate(0.000000,249.000000) scale(0.100000,-0.100000)" fill="#000000" stroke="none">
<path d="M1355 2471 c-84 -30 -148 -67 -202 -116 -103 -91 -172 -230 -176
-351 l-2 -59 56 0 c44 0 72 8 132 38 171 84 287 264 287 444 0 59 -1 63 -22
62 -13 0 -45 -8 -73 -18z"></path>
<path d="M1324 1899 c-29 -5 -83 -20 -120 -34 -173 -65 -178 -67 -229 -62 -28
3 -92 21 -142 41 -114 44 -161 55 -238 56 -144 0 -275 -58 -393 -175 -65 -66
-90 -98 -118 -159 -61 -132 -78 -212 -78 -371 -1 -215 45 -407 148 -620 97
-199 276 -420 373 -462 69 -29 153 -21 278 27 93 36 124 44 200 48 87 4 94 3
205 -39 103 -39 124 -44 200 -44 97 0 132 13 205 77 51 45 139 158 203 260 45
73 122 245 122 274 0 12 -17 28 -47 44 -75 39 -166 136 -207 222 -47 97 -60
162 -54 274 5 82 9 100 48 180 34 71 58 103 122 167 l80 78 -27 35 c-65 85
-216 166 -347 184 -74 11 -114 11 -184 -1z"></path>
<path d="M5802 1203 l3 -698 83 -3 82 -3 0 701 0 700 -85 0 -85 0 2 -697z"></path>
<path d="M2815 1793 c-15 -34 -165 -474 -325 -954 -33 -97 -71 -207 -85 -244
-14 -37 -25 -74 -25 -81 0 -11 19 -14 84 -14 l84 0 69 207 68 208 240 0 240 0
70 -207 70 -208 88 0 c87 0 88 0 82 23 -6 20 -131 391 -265 787 -27 80 -78
228 -114 330 l-64 185 -101 3 -100 3 -16 -38z m134 -193 c8 -30 49 -161 92
-291 44 -130 79 -241 79 -248 0 -8 -56 -11 -193 -11 -107 0 -196 3 -200 6 -3
3 5 33 18 67 38 103 121 357 144 442 30 108 30 110 40 99 4 -5 13 -34 20 -64z"></path>
<path d="M4028 1464 c-83 -20 -135 -49 -194 -110 l-51 -54 -7 31 c-3 17 -6 51
-6 75 l0 44 -73 0 -72 0 3 -662 c2 -365 5 -669 7 -676 3 -9 25 -12 77 -10 l73
3 3 245 c1 135 4 251 7 257 2 8 24 -6 53 -35 68 -66 138 -92 248 -92 219 0
374 139 419 376 19 95 19 180 1 264 -40 187 -148 308 -305 344 -83 19 -107 19
-183 0z m158 -148 c63 -29 115 -90 146 -169 34 -90 33 -255 -1 -346 -90 -236
-399 -257 -511 -35 -22 45 -24 60 -25 189 0 166 14 218 78 291 81 92 206 120
313 70z"></path>
<path d="M5130 1469 c-76 -15 -166 -66 -212 -119 -49 -57 -56 -52 -57 43 l-1
57 -73 0 -73 0 4 -662 c2 -365 5 -669 7 -676 4 -9 25 -12 77 -10 l73 3 5 258
5 257 54 -50 c71 -66 136 -90 246 -90 101 0 174 24 251 81 89 68 141 157 168
291 20 97 20 169 1 263 -21 101 -54 170 -110 233 -59 65 -111 97 -195 116 -72
17 -103 18 -170 5z m148 -155 c125 -62 190 -227 164 -414 -24 -171 -118 -274
-262 -287 -84 -8 -150 17 -216 81 -73 71 -88 125 -82 295 4 107 8 134 30 181
67 147 231 212 366 144z"></path>
<path d="M6513 1465 c-86 -19 -155 -59 -218 -126 -162 -175 -176 -518 -28
-704 43 -55 131 -111 212 -135 64 -20 88 -22 200 -17 119 5 251 32 265 55 3 5
-1 30 -8 58 -15 56 -11 55 -128 30 -266 -56 -459 49 -476 261 l-5 63 337 0
336 0 0 93 c0 229 -119 390 -315 426 -72 14 -93 13 -172 -4z m157 -121 c35
-10 67 -29 91 -53 40 -40 79 -132 79 -186 l0 -35 -256 0 -257 0 7 43 c10 58
64 155 109 190 34 28 107 55 153 56 11 1 45 -6 74 -15z"></path>
</g>
</svg>